My.Friend.Joe.1996.DVDRip.X264

Theatre Date     : 29 August 1996                
IMDB User Ratings: 6.8/10                             
Genre            : Family, drama                              
IMDB Link        : http://www.imdb.com/title/tt0117015/

Language: English


Storyline

During the course of one summer, a young Irish lad named Chris befriends an American boy named Joe. The two couldn't be more different, yet they become inseparable. Things turn horribly wrong however, when Chris discovers his new best friend isn't a he, but a she. The sadness only begins as Chris learns why Joe's gender must be kept a secret.                       
-----------------------------------------------------------


General
Complete name                    : My.Friend.Joe.1996.DVDRip.X264.mkv
Format                           : Matroska
File size                        : 798 MiB
Duration                         : 1h 37mn
Overall bit rate                 : 1 144 Kbps


Video
ID                               : 1
Format                           : AVC
Format/Info                      : Advanced Video Codec
Format profile                   : High@L3.0
Format settings, CABAC           : Yes
Format settings, ReFrames        : 4 frames
Muxing mode                      : Container profile=Unknown@3.0
Codec ID                         : V_MPEG4/ISO/AVC
Duration                         : 1h 37mn
Bit rate                         : 950 Kbps
Width                            : 696 pixels
Height                           : 400 pixels
Display aspect ratio             : 16:9
Frame rate                       : 25.000 fps
Bits/(Pixel*Frame)               : 0.136
Stream size                      : 648 MiB (81%)
Writing library                  : x264 core 107 r1745 4785e8e


Audio
ID                               : 2
Format                           : MPEG Audio
Format version                   : Version 1
Format profile                   : Layer 3
Mode                             : Joint stereo
Codec ID                         : A_MPEG/L3
Codec ID/Hint                    : MP3
Duration                         : 1h 37mn
Bit rate mode                    : Constant
Bit rate                         : 192 Kbps
Channel(s)                       : 2 channels
Sampling rate                    : 48.0 KHz
Stream size                      : 134 MiB (17%)
Writing library                  : LAME3.98r
Language                         : English



